<svg width="136" height="126" viewBox="0 0 136 126" fill="none" xmlns="http://www.w3.org/2000/svg">
  <g clip-path="url(#clip0_1187_12651)">
    <path
      d="M82.39 23.3498C83.3004 22.8371 84.1929 22.3461 85.1233 21.8727C90.9236 18.9212 96.1755 24.055 98.8441 28.7336C103.614 36.9901 108.21 45.3454 112.63 53.7942C114.88 58.0808 119.702 64.4403 115.715 68.9583C112.742 72.3265 107.793 74.3521 103.925 76.4929C100.513 78.3823 97.1111 80.2903 93.7192 82.209L55.4042 104.208L54.9021 104.499C52.1244 106.099 50.3401 107.084 46.9656 106.242C43.4028 105.353 42.5943 103.302 40.589 100.545C36.6266 95.0958 33.5445 89.1619 30.2754 83.2848L23.2042 70.8249C20.7297 66.4467 18.1555 61.5374 23.4794 57.8183C32.6764 51.3933 42.6986 46.334 52.4098 40.7889C62.4381 35.0625 72.3044 28.9911 82.39 23.3498ZM55.407 100.099C61.9919 96.1948 68.6305 92.3818 75.3209 88.6612C79.3579 86.4261 83.4798 84.3447 87.5016 82.0899C94.1501 78.3453 100.892 74.4063 107.462 70.5554C109.46 69.3845 113.51 67.0533 113.797 64.7504C114.144 61.9531 110.052 55.6445 108.654 53.1898L102.915 42.9435C100.006 37.8032 97.4246 32.476 94.3454 27.4339C93.3827 25.8577 91.6758 24.0679 89.8317 23.6829C87.2812 23.1507 84.4143 25.1116 82.2145 26.309C78.9258 28.2358 75.5452 29.9893 72.2651 31.9158C67.5879 34.6629 63.0834 37.5565 58.3724 40.269C47.7664 46.3758 36.7942 51.9814 26.5988 58.7613C24.2362 60.3325 22.6366 62.1254 24.1043 65.0069C25.5849 68.1298 27.3148 71.0128 29.0571 74.0039L34.0201 82.6872L40.1044 93.0609C41.7033 95.7864 43.5536 99.3938 45.8582 101.676C46.074 101.889 46.8471 102.162 47.1303 102.291C49.9915 103.339 53.0592 101.586 55.407 100.099Z"
      fill="black" />
    <path
      d="M89.1537 32.1531C89.9823 31.64 93.3785 29.4838 93.7828 31.4034C93.4819 32.7032 92.0964 33.3405 91.0196 33.9433C89.4508 34.8216 87.8702 35.6838 86.2959 36.5532L73.3203 43.6526C64.7973 48.3497 56.3258 53.14 47.9075 58.0224C42.4617 61.1736 37.235 64.1173 31.8966 67.4826C31.0741 67.9365 29.3367 69.3678 28.3814 69.1499C28.1301 69.0926 27.8476 68.8349 27.7316 68.6116C27.6011 68.3602 27.5796 68.0816 27.6709 67.8146C28.4196 65.6231 55.0096 51.002 59.0324 48.7149C61.734 47.179 64.371 45.5335 67.091 44.0298C74.3941 39.9921 81.802 36.1041 89.1537 32.1531Z"
      fill="black" />
    <path
      d="M54.1245 62.7618C55.4096 62.2781 57.608 63.0116 57.016 64.5159C56.4556 65.9402 55.4735 67.6244 54.7462 69.0253L50.3681 77.5533C52.2629 77.4886 63.2355 77.4384 64.1179 78.0572C64.5146 78.3356 64.7086 78.8819 64.7804 79.3447C64.8651 79.8913 64.8527 80.6688 64.4766 81.1149C64.0962 81.5658 63.4905 81.5773 62.9445 81.6515C57.5715 81.389 52.0707 81.8387 46.7291 80.9647C46.449 80.9188 45.9063 80.5577 45.6632 80.3898C45.6032 77.866 47.8168 74.0969 49.1454 71.9169C50.5175 69.6657 52.5109 64.533 54.1245 62.7618Z"
      fill="black" />
    <path
      d="M73.6828 51.5514C74.592 50.9738 76.0395 51.1066 77.0758 51.2433C80.9106 51.7574 85.1534 52.0757 88.9548 52.4042C93.5505 52.8249 94.8159 52.9974 91.9507 57.3697C90.1157 60.1699 88.53 63.6126 86.7801 66.5174C86.303 67.3095 85.7782 68.2729 85.3132 69.0855C84.8285 69.7562 84.4139 70.4601 83.5913 70.7525C83.1037 70.9259 82.615 70.8365 82.164 70.6093C81.7024 70.3767 81.1719 69.9679 81.0428 69.4377C80.7116 68.0765 85.6655 60.7812 86.5249 59.3469C87.2491 58.1385 87.9173 56.8911 88.5959 55.6567C83.9739 55.4543 78.8606 55.0469 74.244 54.4852C72.8289 54.3131 73.2789 52.5038 73.6828 51.5514Z"
      fill="black" />
    <path
      d="M65.7064 52.0881C68.3176 51.1924 68.4349 52.9464 68.784 55.2315C69.9437 62.8225 70.6635 70.4906 71.791 78.0849C72.0383 79.7506 72.3519 80.896 71.0737 82.1907C69.7994 82.7181 68.4464 82.5221 68.1967 80.9488C66.7892 72.0831 65.6842 63.0298 65.0163 54.0762C64.9436 53.102 65.0875 52.8057 65.7064 52.0881Z"
      fill="black" />
    <path
      d="M85.2456 27.0022C85.6278 26.8451 86.2633 26.6413 86.6703 26.6277C87.3464 26.6081 88.0012 26.8651 88.4834 27.3393C88.9019 27.7593 89.1335 28.3304 89.1253 28.9232C89.1213 29.9427 88.6807 30.379 87.997 31.0347C87.4405 31.3461 86.9307 31.5385 86.2783 31.4885C85.6545 31.4385 85.076 31.1431 84.6699 30.6668C83.5861 29.3938 84.0645 27.978 85.2456 27.0022Z"
      fill="black" />
    <path
      d="M78.8469 30.5786C80.0165 29.9193 81.4988 30.3165 82.1821 31.4723C82.8655 32.6282 82.4988 34.1183 81.3575 34.8254C80.5978 35.296 79.643 35.319 78.8615 34.8855C78.08 34.4521 77.594 33.63 77.591 32.7363C77.5879 31.8427 78.0684 31.0173 78.8469 30.5786Z"
      fill="black" />
    <path
      d="M72.2834 34.2101C72.9376 33.6533 73.8403 33.4908 74.6475 33.7844C75.4548 34.0779 76.0421 34.7824 76.1858 35.6292C76.3295 36.4762 76.0073 37.3349 75.342 37.8783C74.3279 38.7067 72.8357 38.5638 71.9972 37.5581C71.1585 36.5524 71.2863 35.0588 72.2834 34.2101Z"
      fill="black" />
    <path
      d="M106.185 65.6957C106.359 64.4349 107.444 58.74 108.37 57.6841C108.468 57.5729 108.715 57.5745 108.877 57.5563C109.378 58.0986 108.601 60.6551 108.388 61.4503C107.983 62.9704 107.7 64.6428 107.242 66.1312C106.916 65.9235 106.997 66.032 106.822 65.7115C106.573 65.6543 106.436 65.6786 106.185 65.6957Z"
      fill="black" />
    <path
      d="M45.3581 94.9494C45.7827 94.9025 46.0934 94.9521 46.3294 95.3103C47.0694 96.4339 48.5444 98.6625 48.3903 99.9952C47.0687 100.179 44.9772 96.2908 45.3581 94.9494Z"
      fill="black" />
    <path
      d="M26.9274 60.1305C27.5156 60.1774 27.3222 60.09 27.7386 60.4015C28.1013 61.4681 27.7279 64.1389 27.2476 65.1351L26.8341 65.1674L26.5674 64.9241C26.2098 64.0339 26.6447 61.0592 26.9274 60.1305Z"
      fill="black" />
    <path
      d="M110.205 60.4095L110.553 60.4329C111.287 61.2869 110.581 64.5771 110.049 65.4737C109.709 65.4815 109.7 65.4782 109.422 65.2954C109.189 64.2726 109.831 61.4236 110.205 60.4095Z"
      fill="black" />
    <path
      d="M29.3892 58.7079L29.8705 58.6642L30.1645 58.9134C30.6065 59.9245 30.2844 62.0582 29.9594 63.0792L29.6447 63.1208C28.4701 62.619 29.1106 59.7175 29.3892 58.7079Z"
      fill="black" />
    <path
      d="M32.2594 57.3126C32.5744 57.3017 32.5605 57.2922 32.8348 57.4393C33.2231 58.2599 32.8401 60.1833 32.3515 60.9278C32.0636 61.016 32.1674 60.9958 31.8442 60.9166C31.4273 60.2958 31.9479 57.9963 32.2594 57.3126Z"
      fill="#151516" />
    <path
      d="M48.2599 95.0243C49.3009 94.9237 50.5616 96.997 50.4152 97.9468C49.4693 97.9886 48.1424 95.9585 48.2599 95.0243Z"
      fill="black" />
    <path
      d="M107.242 66.1312C107.169 66.5641 107.16 66.6226 106.836 66.9127C106.386 66.993 106.562 67.0262 106.177 66.7937C105.98 66.2271 106.05 66.3588 106.185 65.6957C106.435 65.6786 106.572 65.6543 106.821 65.7115C106.996 66.032 106.915 65.9236 107.242 66.1312Z"
      fill="#151516" />
    <path
      d="M87.4757 7.50336C91.8392 4.78253 88.6411 14.6066 87.8219 15.8166C87.7104 15.8655 87.5974 15.9112 87.4833 15.9539C83.8439 17.2924 86.8825 8.64363 87.4757 7.50336Z"
      fill="black" />
    <path
      d="M52.9676 109.931C53.1305 109.871 53.559 109.747 53.7336 109.747C54.0253 109.745 54.305 109.862 54.5076 110.072C55.5592 111.145 53.8819 116.921 52.8939 117.889C52.8058 117.911 52.7363 117.925 52.6487 117.945L52.5065 117.978C49.1639 118.737 52.2975 110.87 52.9676 109.931Z"
      fill="black" />
    <path
      d="M78.8109 9.1384C79.3202 8.93214 80.1626 8.63384 80.5536 9.128C81.6739 10.5439 82.2807 14.6639 82.3809 16.3753C80.3809 17.7867 79.3984 14.5272 79.0632 13.1716C78.6902 11.6637 78.0233 10.5946 78.8109 9.1384Z"
      fill="black" />
    <path
      d="M19.1337 84.0608C20.3601 83.2181 25.4429 82.4058 26.4673 83.845C26.6344 84.3805 26.5264 84.6185 26.3785 85.1611C25.3091 86.1194 21.5627 86.3436 20.1146 86.1042C18.8985 85.9031 18.8536 85.06 19.1337 84.0608Z"
      fill="black" />
    <path
      d="M95.7872 12.0131C96.5887 11.5639 97.4305 11.6534 97.8691 12.5092C97.8415 13.944 95.0633 16.4154 93.9548 17.5024L93.7997 17.6135C89.4333 17.9492 94.9108 12.9206 95.7872 12.0131Z"
      fill="black" />
    <path
      d="M26.1779 89.4491C27.0077 88.7683 27.9492 88.3847 28.8964 88.9994C29.6201 90.3283 27.2087 91.9118 26.2317 92.725C25.2804 93.7038 23.1581 94.654 23.2741 92.2937C23.332 91.1147 25.2207 90.0434 26.1779 89.4491Z"
      fill="black" />
    <path
      d="M42.4281 111.686C44.4674 110.502 46.4163 112.154 44.7929 114.565C44.2065 114.77 43.2876 114.771 42.741 114.426C42.3703 114.196 42.1075 113.826 42.0112 113.4C41.855 112.707 42.0783 112.257 42.4281 111.686Z"
      fill="black" />
    <path
      d="M58.1297 108.743C58.7809 108.563 59.2306 108.613 59.6233 109.161C60.6008 110.528 61.2675 111.791 60.2326 113.233C58.1335 113.418 57.5226 110.217 58.1297 108.743Z"
      fill="black" />
  </g>
  <defs>
    <clipPath id="clip0_1187_12651">
      <rect width="108.093" height="86.346" fill="white" transform="translate(0 48.6822) rotate(-26.7677)" />
    </clipPath>
  </defs>
</svg>