<svg width="105" height="28" viewBox="0 0 105 28" fill="none" xmlns="http://www.w3.org/2000/svg">
<g clip-path="url(#clip0_1100_9622)">
<path d="M20.345 12.7342C19.9234 13.3375 19.8599 14.0344 19.8775 14.7083C19.8934 15.3399 19.6658 15.6346 19.0924 15.8533C18.2068 16.192 17.4129 16.716 16.6896 17.337C16.3632 17.6175 16.2397 17.5805 16.1232 17.1677C16.0686 16.9754 15.9909 16.8272 15.7616 16.9154C14.8689 17.2629 13.9727 17.5928 13.2405 18.2562C12.7553 18.6955 12.6424 19.1842 12.8559 19.7858C13.0164 20.2356 13.2246 20.6626 13.5316 21.0225C13.7504 21.2783 13.7045 21.453 13.4699 21.6241C13.1646 21.8481 13.117 22.0775 13.3375 22.4127C13.5669 22.7603 13.1946 23.4624 12.7853 23.5206C12.3972 23.5753 12.0038 23.6088 11.6227 23.6935C11.2734 23.7712 11.2628 23.5665 11.2734 23.3354C11.284 23.0672 11.4463 22.8555 11.568 22.6315C11.8591 22.0951 11.7815 21.5729 11.5451 21.0137C11.1234 21.3471 11.0193 21.7829 10.9841 22.2451C10.947 22.7179 10.9382 23.1925 10.8994 23.6635C10.8853 23.8364 10.8676 24.034 10.7776 24.1699C10.2078 25.0167 10.663 25.8653 10.7882 26.698C10.8394 27.035 10.8306 27.2714 10.603 27.499C10.4689 27.6313 10.3313 27.7706 10.1725 27.8677C9.98374 27.9806 9.7491 28.1376 9.60796 27.8042C9.55151 27.6683 9.50387 27.6736 9.40861 27.7548C9.11398 28.0035 8.83171 27.91 8.55825 27.716C8.27774 27.5166 8.1119 27.2237 8.24245 26.9079C8.51062 26.2587 8.56531 25.5548 8.80701 24.902C8.96755 24.4645 9.03988 24.0111 8.96931 23.5471C8.9305 23.293 8.98343 23.0796 9.0981 22.852C9.50211 22.051 9.83908 21.2324 9.5568 20.2586C8.79818 21.1513 7.85962 20.7402 6.97221 20.6802C6.6229 20.2762 6.07422 20.0292 6.00895 19.3994C5.95778 18.9037 5.91015 18.4026 5.77254 17.9192C5.61553 17.3741 5.3703 16.8854 4.84632 16.5961C4.71754 16.5237 4.66637 16.4161 4.63285 16.2732C4.53582 15.8392 4.41232 15.4105 4.31529 14.9765C4.26766 14.7648 4.2112 14.6731 3.94833 14.696C3.24441 14.7542 2.76807 14.4031 2.5299 13.7027C2.49285 13.5916 2.43286 13.5457 2.3376 13.5298C2.22469 13.5104 2.1647 13.5828 2.12413 13.678C2.05003 13.8562 2.02004 14.0397 2.04121 14.232C2.04826 14.2902 2.07826 14.3714 1.99181 14.4049C1.91595 14.4349 1.86478 14.3784 1.81539 14.3343C1.56134 14.105 1.45372 13.8262 1.58251 13.4963C1.72365 13.1346 2.1647 12.8418 2.50696 12.9C2.8651 12.96 3.21794 13.0588 3.57432 13.1346C4.0189 13.2299 4.46349 13.304 4.80398 12.8859C4.86397 12.8118 4.91689 12.7906 4.99805 12.8647C5.33501 13.1717 5.75137 13.1911 6.17831 13.184C6.7411 13.1735 7.32329 13.0694 7.81728 13.4628C7.86668 13.5034 7.91431 13.5034 7.96018 13.4628C8.42417 13.05 9.01342 13.1029 9.56915 13.0147C9.96963 12.9512 10.3772 12.8859 10.5289 12.4025C10.6189 12.1167 10.5289 11.9703 10.2537 11.8997C9.89553 11.808 9.53034 11.8097 9.16514 11.8062C8.8123 11.8009 8.46828 11.7603 8.16836 11.5804C8.35007 11.1693 8.48415 10.8059 8.42946 10.3242C8.35007 9.62913 8.23893 8.87934 8.49121 8.21246C8.70821 7.63909 9.02577 7.05513 9.69794 6.82931C10.0314 6.71816 10.2925 6.80285 10.5377 7.05513C11.2363 7.77317 11.875 8.54943 12.6742 9.16514C13.207 9.57621 13.7909 9.87613 14.4631 9.97139C14.7471 10.012 14.9659 10.1513 15.167 10.3366C15.467 10.61 15.7563 10.8976 16.0703 11.1534C16.6666 11.6368 17.1782 11.6474 17.8081 11.2116C18.3126 10.8623 18.7149 10.4001 19.163 9.98727C19.5388 9.64148 19.9551 9.35039 20.4756 9.32216C20.959 9.2957 21.4441 9.33098 21.9293 9.35568C22.1886 9.36803 22.2645 9.5127 22.2133 9.77204C22.1093 10.3048 21.9275 10.8129 21.7635 11.3263C21.6717 11.6121 21.61 11.9015 21.5941 12.1996C21.5623 12.803 21.67 12.9635 22.231 13.1452C22.6685 13.2864 22.9102 13.618 23.0831 14.0132C23.2242 14.3343 23.3442 14.6642 23.4906 14.9818C23.653 15.3311 23.9476 15.5111 24.3269 15.5305C24.6056 15.5463 24.8367 15.4987 24.9708 15.1794C25.1278 14.8036 25.4525 14.5619 25.8282 14.4172C26.1176 14.3061 26.4175 14.2267 26.7174 14.1455C28.0688 13.7804 28.5381 13.1964 28.5981 11.785C28.614 11.4198 28.6087 11.0529 28.621 10.6877C28.6351 10.3348 28.935 10.0561 28.9544 9.66795C29.085 10.1619 29.2191 10.6577 29.3461 11.1517C29.3832 11.2946 29.3937 11.4463 29.4343 11.5874C29.6478 12.339 29.3408 12.9318 28.8645 13.4698C28.6863 13.671 28.6898 13.8121 28.8927 14.0026C29.1785 14.2708 29.4131 14.5919 29.6972 14.8618C29.9936 15.1459 30.3429 15.3382 30.8281 15.2888C30.297 14.7136 29.9389 14.0626 29.5331 13.4434C29.4537 13.3217 29.4061 13.237 29.5366 13.0994C30.3764 12.2261 30.5493 11.1287 30.5281 9.98198C30.5193 9.44213 30.4752 8.90051 30.3411 8.37301C30.2829 8.14542 30.357 8.00076 30.5334 7.8508C31.0786 7.38681 31.6661 6.96692 32.1212 6.40237C32.5552 5.86604 32.7334 5.28561 32.5535 4.59227C32.3118 3.66076 31.8372 3.37143 30.9092 3.63959C30.1823 3.84954 29.6778 4.34705 29.2314 4.92395C28.9086 5.34207 28.6298 5.79195 28.3864 6.2577C28.2505 6.51528 28.1429 6.58408 27.8447 6.46059C26.8303 6.0407 25.7771 5.76019 24.6762 5.67727C23.57 5.59435 22.515 5.74255 21.5535 6.31945C21.3401 6.44824 21.1672 6.38473 20.9819 6.3318C19.8105 5.99836 18.7078 5.48674 17.5946 5.00687C16.2115 4.4088 14.7983 3.9448 13.2652 3.91128C12.5983 3.89717 11.9914 3.57961 11.3828 3.3238C10.7724 3.06622 10.1602 2.82629 9.49682 2.73808C9.08928 2.68338 8.7382 2.73278 8.39594 3.00094C7.79787 3.46846 7.24567 3.98891 6.66524 4.47584C6.2083 4.85867 5.73726 5.2221 5.18858 5.46557C5.02451 5.5379 4.92571 5.6561 4.87984 5.81312C4.83574 5.96131 4.90101 6.19595 4.59757 6.05482C4.54993 6.03188 4.50054 6.16773 4.48995 6.25065C4.41232 6.81167 4.17592 7.31624 3.87247 7.77846C3.12268 8.91992 2.65516 10.1249 2.87745 11.5204C2.92155 11.8009 2.82805 11.9314 2.5246 11.9597C1.98299 12.0091 1.52782 12.2878 1.1044 12.6071C0.703925 12.9088 0.688047 14.0097 1.0603 14.3908C1.37609 14.7136 1.77834 14.9183 2.14882 15.1653C2.52637 15.4176 2.8651 15.7034 2.97448 16.1744C3.02212 16.3773 3.05211 16.5837 2.86686 16.896C2.68691 15.8568 1.96358 15.4246 1.24201 15.0347C0.299918 14.5125 0.0123496 13.6868 0.0105853 12.7006C0.00352845 8.60941 0.0123496 4.51818 0 0.426942C0 0.100561 0.0582194 0 0.4093 0.00176422C11.1675 0.0123496 21.924 0.0141138 32.6823 0C33.0669 0 33.1057 0.123496 33.1057 0.451641C33.0951 5.41087 33.0986 10.3683 33.0986 15.3276C33.0986 15.6722 32.9481 15.7657 32.647 15.6081C32.5446 15.5552 32.4353 15.5128 32.2765 15.444C32.5164 16.2309 32.8622 16.9136 33.1445 17.6211C33.3738 18.198 33.5908 18.7784 33.6773 19.3994C33.7108 19.634 33.8502 19.8228 33.9684 20.0169C34.1307 20.2815 34.3053 20.5444 34.3724 20.8496C34.4218 21.0701 34.4606 21.2924 34.2012 21.4547C33.9331 21.6223 33.896 21.9117 33.9013 22.208C33.9207 23.6088 33.9472 23.4271 32.6205 23.51C32.6064 23.51 32.594 23.5136 32.5799 23.51C32.2924 23.4783 31.9748 23.6971 31.7278 23.503C31.5479 23.3619 31.7384 22.2416 31.9677 22.0387C32.37 21.6858 32.3329 21.2324 32.243 20.809C32.1794 20.5056 32.1547 20.2162 32.2288 19.9322C32.3594 19.4241 32.2218 19.0077 31.9095 18.6108C31.4773 18.0604 30.888 17.6828 30.3941 17.2047C30.0271 16.8483 29.6443 16.6754 29.1168 16.6507C28.3423 16.6155 27.6048 16.3473 26.9591 15.9098C26.6962 15.7316 26.5569 15.8022 26.391 16.005C26.0823 16.3843 25.9905 16.8501 25.8441 17.3C25.7136 17.6987 25.6148 18.0498 25.8635 18.4661C26.0805 18.8313 26.0752 19.2971 26.1652 19.717C26.2217 19.9763 25.9112 20.1986 25.6448 20.2321C24.3886 20.3962 23.1501 20.7596 21.8623 20.6026C21.7599 20.5903 21.617 20.6079 21.6117 20.6838C21.5853 21.0578 21.3489 21.2783 21.0913 21.5006C21.0031 21.5765 21.1072 21.67 21.1407 21.7546C21.6117 22.9543 21.37 23.1907 20.2603 23.3619C20.181 23.3742 20.0998 23.3866 20.0187 23.3901C19.3906 23.4218 19.4082 23.3813 19.44 22.7779C19.4806 22.0281 19.7911 21.3418 19.8599 20.6044C19.881 20.3662 19.9763 20.1333 20.1069 19.9234C20.2762 19.6535 20.4897 19.507 20.8372 19.5176C21.6805 19.5423 22.508 19.4594 23.2825 19.0677C23.5912 18.9107 23.6565 18.692 23.5489 18.4079C23.383 17.9686 23.0743 17.6193 22.6262 17.5029C22.0581 17.3564 21.6259 17.0442 21.2465 16.6296C20.899 16.2503 20.5726 15.8516 20.2233 15.4758C20.1069 15.3505 20.0927 15.2182 20.0927 15.0682C20.0963 14.4702 20.2057 13.8844 20.2833 13.2952C20.308 13.1082 20.3239 12.9194 20.345 12.7324V12.7342ZM13.3905 15.7598C13.3446 15.1423 13.708 14.8142 14.1738 14.5496C14.4314 14.4031 14.6925 14.2549 14.9236 14.0732C15.4528 13.6551 15.5005 13.027 15.0735 12.5066C14.6448 11.9844 14.075 11.9067 13.4593 11.9861C12.713 12.0832 11.995 12.3707 11.224 12.3002C11.1552 12.2931 11.1058 12.3108 11.0723 12.3919C10.8976 12.8224 11.2275 13.2987 11.6915 13.2705C12.0743 13.2476 12.4201 13.0852 12.7818 12.9794C13.0923 12.8877 13.4028 12.7906 13.7327 12.8206C14.3167 12.8753 14.4896 13.1929 14.2161 13.7027C14.0203 14.0697 13.7151 14.3308 13.3746 14.5619C13.0429 14.786 13.0394 15.4528 13.3922 15.758L13.3905 15.7598ZM9.09457 17.4958C9.11045 17.4958 9.12457 17.4958 9.14044 17.4958C9.14044 17.0495 9.14044 16.6031 9.14044 16.155C9.14044 16.0686 9.19866 15.9398 9.06282 15.9204C8.89698 15.8957 8.9552 16.0439 8.95697 16.1197C8.98872 17.0459 8.75232 17.9457 8.68704 18.8631C8.67998 18.9742 8.53355 19.1648 8.75584 19.1895C8.91815 19.2071 9.03459 19.0871 9.03636 18.8754C9.03988 18.415 9.0734 17.9563 9.09457 17.4958ZM6.69347 18.512C6.73228 18.7643 6.75698 18.9813 6.6176 19.1859C6.5488 19.2865 6.57173 19.4541 6.70229 19.5017C7.15922 19.6693 7.5844 20.0028 8.12249 19.8087C8.22305 19.7717 8.3536 19.7575 8.32361 19.6111C8.29715 19.4806 8.17012 19.5405 8.08544 19.53C8.0184 19.5229 7.95136 19.53 7.88432 19.53C7.25625 19.53 7.19627 19.4876 7.00397 18.8843C6.95457 18.7325 6.91399 18.5808 6.69347 18.5138V18.512ZM10.1655 13.4222C9.64148 13.4945 9.17749 13.5563 8.71527 13.6216C8.5953 13.6392 8.44358 13.5916 8.42593 13.8086C8.403 14.0785 8.56354 14.2461 8.73997 14.3784C8.89169 14.4913 8.96579 14.3326 9.03459 14.2108C9.14574 14.0132 9.33804 13.9144 9.53563 13.8262C9.74204 13.7327 9.96081 13.6621 10.1655 13.4205V13.4222ZM5.84135 13.6763C6.10245 13.8315 6.34415 13.9656 6.5735 14.1156C6.69523 14.1967 6.7658 14.165 6.83284 14.0556C6.91399 13.9233 7.07983 13.8086 6.98633 13.6322C6.90694 13.4822 6.74639 13.4328 6.57526 13.424C6.31592 13.4116 6.08304 13.4734 5.84135 13.6745V13.6763ZM6.2824 14.9871C6.02835 14.4978 5.78077 14.249 5.53966 14.2408C5.74784 14.509 5.86428 14.8354 6.2824 14.9871ZM10.3013 14.0909C10.266 14.0115 10.2607 13.9021 10.1496 13.9268C9.97492 13.9656 9.81261 14.0379 9.77027 14.2391C9.75439 14.3167 9.79144 14.3661 9.88671 14.3343C10.0437 14.2814 10.2431 14.3026 10.2995 14.0891L10.3013 14.0909ZM6.78697 16.1744C6.78521 15.975 6.92634 15.7422 6.68641 15.5516C6.67759 15.7792 6.66171 15.9839 6.78697 16.1744Z" fill="#131313"/>
<path d="M7.07918 8.95669C7.05625 9.22309 7.02979 9.64121 6.98039 10.0576C6.93452 10.4369 6.90629 10.8109 6.99627 11.1884C7.07389 11.5148 6.93099 11.76 6.6099 11.7689C5.8848 11.7883 5.2144 12.0653 4.50871 12.1641C4.44167 12.1729 4.37463 12.1817 4.30582 12.1817C3.59131 12.1905 3.45547 12.0635 3.51545 11.3596C3.57544 10.6609 3.54544 9.94995 3.74127 9.26543C3.8877 8.75381 4.13646 8.30569 4.60221 8.034C4.91977 7.84876 5.13148 7.60177 5.30967 7.28774C5.6731 6.64909 6.04711 6.6191 6.55345 7.15189C6.93275 7.55061 7.08271 8.02342 7.07742 8.95846L7.07918 8.95669Z" fill="#131313"/>
<path d="M27.9081 7.92966C28.4074 7.11106 28.7955 6.22895 29.3653 5.45269C29.8152 4.83874 30.3798 4.37475 31.1137 4.12776C31.2919 4.06777 31.4295 4.07836 31.5653 4.1895C31.8935 4.45767 31.9958 5.00457 31.7982 5.38565C31.5565 5.84611 31.1525 6.11074 30.6814 6.26776C30.2086 6.42477 29.7235 6.54298 29.2436 6.67529C29.1272 6.70705 29.0125 6.72469 28.9507 6.85701C28.732 7.31924 28.3544 7.65091 27.9928 7.99493C27.9663 7.972 27.9381 7.95083 27.9116 7.92789L27.9081 7.92966Z" fill="#131313"/>
<path d="M27.7277 8.2915C27.5513 8.72197 27.6148 9.09246 27.8071 9.49823C27.9765 9.85637 27.74 10.1986 27.5336 10.5021C27.2461 10.922 26.8756 11.2942 26.835 11.9099C26.4328 11.2148 26.2863 10.5462 26.3569 9.82991C26.3851 9.53705 26.4945 9.3077 26.775 9.14715C27.1437 8.93721 27.396 8.57554 27.7277 8.2915Z" fill="#131313"/>
<path d="M27.9917 7.99844C27.9529 8.06371 27.9035 8.08841 27.8312 8.0496C27.8576 8.01079 27.8841 7.97197 27.9106 7.9314C27.937 7.95433 27.9653 7.9755 27.9917 7.99844Z" fill="#131313"/>
</g>
<g clip-path="url(#clip1_1100_9622)">
<path d="M81.6672 7.10927C82.6155 7.80054 82.9611 8.802 83.4101 9.73552C83.6465 10.2259 83.8474 10.6543 84.5445 10.7252C85.221 10.7931 84.7868 11.4519 84.8754 11.8389C84.9611 12.2111 84.645 12.1402 84.4323 12.1402C83.6169 12.1491 82.7986 12.1254 81.9833 12.1638C81.5992 12.1816 81.4072 12.0457 81.2654 11.7118C80.8548 10.7577 80.4176 9.81528 79.9981 8.86404C79.8888 8.61589 79.7913 8.35593 79.5816 8.17277C79.3452 7.96893 79.0528 7.85963 78.7633 7.97189C78.4915 8.07824 78.6333 8.36774 78.6215 8.57749C78.6008 8.98516 78.6096 9.39283 78.6096 9.80051C78.6096 10.2761 78.4531 10.7577 79.2802 10.802C79.7736 10.8286 79.3984 11.446 79.4811 11.7857C79.5402 12.0279 79.4161 12.1461 79.1414 12.1432C77.8504 12.1343 76.5565 12.1432 75.2655 12.1432C75.1031 12.1432 74.9376 12.155 74.9376 11.9157C74.9376 11.6203 74.9288 11.3249 74.9376 11.0324C74.9524 10.5597 75.3394 10.799 75.555 10.7311C75.7855 10.6572 75.8091 10.5095 75.8091 10.3175C75.818 7.89212 75.8239 5.46676 75.8445 3.0414C75.8445 2.68985 75.6614 2.62782 75.3748 2.63077C74.5506 2.63963 75.0469 2.01631 74.9465 1.69135C74.8342 1.31913 75.0381 1.1921 75.4221 1.20096C77.298 1.23936 79.1827 0.979398 81.0468 1.35458C82.5741 1.66476 83.546 2.57464 83.7528 3.84493C83.9448 5.02955 83.2536 6.17576 81.8828 6.94975C81.8297 6.97929 81.7794 7.02065 81.6672 7.10041V7.10927ZM78.6303 4.53029C78.6303 4.53029 78.6244 4.53029 78.6215 4.53029C78.6215 5.09454 78.6333 5.65878 78.6155 6.22302C78.6067 6.49185 78.7071 6.55684 78.9641 6.57162C79.9567 6.62774 80.7278 5.95715 80.8253 4.9291C80.9434 3.6795 80.2551 2.63077 79.2596 2.53919C78.8371 2.50079 78.5653 2.5835 78.6185 3.11525C78.6658 3.58496 78.6274 4.06058 78.6274 4.5362L78.6303 4.53029Z" fill="#131313"/>
<path d="M92.8897 5.6399C92.8897 4.84524 92.8601 4.05057 92.9015 3.25885C92.9281 2.73597 92.7272 2.54099 92.2368 2.62667C91.4628 2.7596 91.6519 2.22195 91.6105 1.79655C91.5603 1.25298 91.8025 1.17617 92.2841 1.1939C93.3269 1.2323 94.3697 1.20276 95.4125 1.19981C95.6518 1.19981 95.9945 1.12595 95.8911 1.53067C95.7966 1.89994 96.2722 2.52327 95.5336 2.60599C95.0521 2.65916 95.0728 2.89845 95.0669 3.23227C95.0462 4.91023 95.1053 6.58819 94.9635 8.2632C94.7833 10.405 93.6873 11.8348 91.8439 12.2011C90.7243 12.4226 89.5781 12.3931 88.4939 11.9795C86.7007 11.2971 86.1808 9.7964 86.1335 8.06527C86.0892 6.45525 86.1128 4.84524 86.1247 3.23522C86.1247 2.85414 86.1158 2.56463 85.6047 2.61189C85.1173 2.65621 85.3329 2.2574 85.2945 2.03583C85.1793 1.37706 85.4009 1.14368 86.1217 1.19095C87.3181 1.26775 88.5234 1.21458 89.7258 1.1939C90.0891 1.18799 90.3905 1.21458 90.2841 1.68429C90.2014 2.04765 90.5648 2.70347 89.7376 2.62371C89.2502 2.57644 89.0729 2.71824 89.0847 3.24704C89.1143 4.80979 89.0818 6.37549 89.0759 7.94119C89.0759 8.48476 89.0965 9.02832 89.3388 9.53644C89.6874 10.272 90.2812 10.6472 91.067 10.6177C91.838 10.5881 92.3875 10.1568 92.6533 9.35919C93.0551 8.14208 92.8513 6.88656 92.8897 5.64581V5.6399Z" fill="#131313"/>
<path d="M63.7487 5.89762C63.7487 4.96706 63.7428 4.03945 63.7487 3.1089C63.7487 2.82825 63.7192 2.62146 63.3617 2.61851C62.4991 2.60964 63.022 1.96268 62.9363 1.61409C62.8241 1.15324 63.1874 1.20051 63.4887 1.20051C64.7797 1.20346 66.0736 1.22119 67.3646 1.18869C67.8077 1.17688 67.9584 1.34231 67.8638 1.73226C67.7841 2.06608 68.1918 2.70418 67.3764 2.61555C66.8003 2.55351 66.6526 2.79871 66.6615 3.34227C66.6851 4.86071 66.6556 6.37915 66.6497 7.89758C66.6497 8.42047 66.7029 8.9404 66.9008 9.42784C67.2257 10.2373 67.8727 10.6568 68.694 10.6125C69.4709 10.5681 70.0558 10.0807 70.2922 9.26536C70.5285 8.44706 70.4812 7.60512 70.4812 6.76614C70.4812 5.61107 70.4369 4.45304 70.4694 3.29796C70.4842 2.76621 70.3335 2.53579 69.7959 2.62146C68.9835 2.75144 69.27 2.14879 69.2109 1.75885C69.1341 1.24778 69.3823 1.17392 69.8284 1.18869C70.8712 1.22119 71.914 1.22119 72.9568 1.18869C73.3911 1.17392 73.524 1.31277 73.4797 1.72635C73.4354 2.1547 73.654 2.70713 72.8505 2.66873C72.5373 2.65396 72.6525 3.02027 72.6496 3.22411C72.6348 4.60665 72.6259 5.9892 72.6289 7.37174C72.6289 7.9419 72.561 8.50614 72.428 9.05561C71.7131 12.0068 69.6688 12.6006 67.016 12.2107C64.957 11.9064 63.8551 10.574 63.7664 8.4766C63.731 7.61694 63.7605 6.75432 63.7605 5.89171C63.7546 5.89171 63.7458 5.89171 63.7398 5.89171L63.7487 5.89762Z" fill="#131313"/>
<path d="M58.8645 10.6141C58.6932 9.83028 58.2372 9.44132 57.4967 9.44723C56.9738 9.45313 56.451 9.48858 55.931 9.46495C55.4731 9.44427 55.2516 9.57425 55.1482 10.0646C55.0536 10.5137 55.0536 10.688 55.5824 10.75C56.2944 10.8327 55.8099 11.4295 55.9074 11.7781C56.0078 12.1355 55.7331 12.1532 55.4584 12.1503C54.4155 12.1414 53.3727 12.1444 52.327 12.1503C52.0788 12.1503 51.8247 12.1385 51.9163 11.8076C52.0168 11.4472 51.5707 10.8534 52.2383 10.753C52.7199 10.6821 52.8646 10.431 53.0064 10.0499C54.0433 7.25229 55.1068 4.46652 56.126 1.66303C56.2885 1.21695 56.4982 1.09878 56.9473 1.09583C58.64 1.08992 58.6459 1.07219 59.1924 2.67335C60.0403 5.15484 60.8911 7.63633 61.7212 10.1208C61.8393 10.4782 61.9693 10.685 62.3947 10.7234C63.1421 10.7914 62.6665 11.3911 62.7581 11.7397C62.8585 12.1296 62.5631 12.1503 62.2588 12.1503C61.0329 12.1414 59.8098 12.1532 58.5839 12.1414C58.3357 12.1414 57.8985 12.3069 57.996 11.781C58.0698 11.3763 57.6385 10.6909 58.5366 10.6791C58.6429 10.6791 58.7522 10.6378 58.8586 10.6171L58.8645 10.6141ZM56.9443 4.10611C56.7021 4.86238 56.4775 5.42957 56.3446 6.0145C56.191 6.68804 55.5204 7.55657 55.9458 7.95833C56.3239 8.31874 57.3195 8.03514 58.1289 8.03514C57.7419 6.74713 57.3667 5.50934 56.9443 4.10611Z" fill="#131313"/>
<path d="M99.558 12.2991C99.0056 12.3139 98.3291 12.2519 97.6615 12.1248C97.3188 12.0599 97.1268 11.9269 97.109 11.5104C97.0765 10.7896 96.9643 10.0688 96.855 9.35385C96.7929 8.94617 96.9318 8.75415 97.3335 8.73347C97.3572 8.73347 97.3779 8.73347 97.4015 8.72756C98.5772 8.51486 98.5979 8.50896 98.8992 9.68176C99.0292 10.1899 99.2301 10.5739 99.7944 10.63C100.477 10.698 101.177 10.7541 101.661 10.1219C102.09 9.56064 101.921 8.78074 101.292 8.43806C100.917 8.23422 100.512 8.08356 100.11 7.92994C99.5403 7.70543 98.9879 7.44841 98.4886 7.09096C96.5832 5.73205 96.6423 3.029 98.6511 1.80598C100.252 0.831105 102.013 0.890188 103.785 1.22992C104.09 1.289 104.119 1.49284 104.14 1.72031C104.208 2.48839 104.261 3.25647 104.341 4.02159C104.37 4.31406 104.261 4.44108 103.986 4.46176C103.942 4.46472 103.898 4.47949 103.853 4.48835C102.654 4.6981 102.604 4.70696 102.376 3.53416C102.246 2.86356 101.868 2.68631 101.295 2.6745C100.592 2.65973 100.022 3.04377 99.8771 3.60801C99.7146 4.24906 99.9066 4.72468 100.533 5.00533C101.15 5.28302 101.803 5.47799 102.424 5.74387C104.01 6.42332 104.707 7.43955 104.618 8.89595C104.524 10.4173 103.59 11.5429 102.04 12.0303C101.271 12.2726 100.486 12.311 99.561 12.3021L99.558 12.2991Z" fill="#131313"/>
<path d="M47.3275 1.19416C48.778 1.19416 50.2315 1.20893 51.682 1.18529C52.0926 1.17939 52.2285 1.28278 52.2285 1.70818C52.2285 2.52353 52.2905 3.33887 52.3467 4.15422C52.3703 4.50281 52.2433 4.61802 51.8976 4.65347C50.5653 4.78346 50.5683 4.79527 50.3201 3.47181C50.2108 2.88393 49.4959 2.52353 48.9317 2.75395C48.719 2.84258 48.781 3.00801 48.781 3.14981C48.7574 5.50722 48.7544 7.86759 48.713 10.225C48.7042 10.7656 49.0557 10.6209 49.3423 10.6711C49.5461 10.7065 49.8622 10.5677 49.9183 10.8749C49.9892 11.2737 49.9804 11.6903 49.8652 12.0861C49.8504 12.1334 49.6613 12.1452 49.555 12.1452C48.0572 12.1482 46.5595 12.1393 45.0647 12.1541C44.7249 12.157 44.657 12.027 44.6452 11.7169C44.6127 10.7893 44.5979 10.7745 45.5166 10.6622C45.7766 10.6297 45.8652 10.55 45.8652 10.293C45.8593 7.88827 45.8593 5.48359 45.8652 3.07891C45.8652 2.81303 45.7648 2.69487 45.5078 2.73918C45.0912 2.80713 44.5388 2.57375 44.3616 3.19412C44.2493 3.58407 44.205 3.9947 44.1311 4.39351C44.0839 4.64461 43.9893 4.76278 43.6792 4.7421C42.2493 4.64757 42.2523 4.66234 42.3646 3.23252C42.4 2.78054 42.4266 2.3256 42.4177 1.87361C42.4059 1.37436 42.5389 1.16757 43.112 1.1912C44.5152 1.24438 45.9243 1.20893 47.3305 1.20893C47.3305 1.20597 47.3305 1.20006 47.3305 1.19711L47.3275 1.19416Z" fill="#131313"/>
<path d="M57.2625 18.2813C57.2625 19.1971 57.2477 20.0302 57.2713 20.8633C57.2802 21.135 57.2831 21.3034 56.9464 21.265C56.7012 21.2355 56.4176 21.3743 56.4117 20.9017C56.3998 19.5221 56.5151 18.1395 56.3467 16.7599C56.3319 16.6359 56.3467 16.5265 56.4944 16.5147C56.7632 16.497 57.0143 16.4645 57.23 16.7245C57.9212 17.5635 58.6361 18.3818 59.3392 19.2119C59.3924 19.2769 59.4308 19.3537 59.549 19.4009C59.6524 18.6033 59.6819 17.8352 59.6051 17.0583C59.5815 16.8249 59.3924 16.5059 59.8917 16.4941C60.3052 16.4822 60.5002 16.5561 60.4884 17.0406C60.4559 18.2636 60.4884 19.4866 60.4825 20.7126C60.4825 20.8898 60.6538 21.1498 60.385 21.2414C60.1546 21.3182 59.9153 21.2857 59.7174 21.0582C58.9345 20.1513 58.131 19.2591 57.2684 18.2843L57.2625 18.2813Z" fill="#131313"/>
<path d="M95.3715 19.4542C95.3715 18.5769 95.3863 17.7645 95.3656 16.9521C95.3567 16.6596 95.3656 16.4765 95.7378 16.5001C96.0273 16.5178 96.2548 16.4883 96.2548 16.9078C96.2489 18.2667 96.2814 19.6256 96.2991 20.9845C96.2991 21.0879 96.3434 21.2267 96.178 21.2474C95.9298 21.2799 95.7053 21.2829 95.5074 21.0554C94.7246 20.1514 93.924 19.2622 93.0614 18.2903C93.0614 19.2031 93.0525 20.048 93.0673 20.8929C93.0702 21.1233 93.0909 21.3242 92.7807 21.2592C92.5828 21.2179 92.2372 21.466 92.2194 21.0081C92.1663 19.5842 92.3287 18.1544 92.1249 16.7335C92.1042 16.6005 92.1781 16.5208 92.314 16.5149C92.5857 16.5001 92.828 16.5001 93.0377 16.7601C93.7526 17.6374 94.4971 18.4941 95.2297 19.3568C95.2534 19.3833 95.2888 19.4011 95.3686 19.4602L95.3715 19.4542Z" fill="#131313"/>
<path d="M54.5198 18.8184C54.5198 20.2452 53.5508 21.3324 52.2451 21.3589C50.963 21.3855 50.0354 20.387 50.0294 18.969C50.0235 17.5245 50.9807 16.4787 52.316 16.4669C53.6926 16.458 54.5168 17.3383 54.5198 18.8154V18.8184ZM50.9925 18.9868C51.0575 19.2379 51.1166 19.5717 51.2347 19.8819C51.4179 20.3693 51.7931 20.6588 52.316 20.644C52.8093 20.6293 53.1431 20.3309 53.3292 19.873C53.5951 19.2172 53.6099 18.5614 53.3204 17.9085C53.1254 17.4683 52.827 17.164 52.3041 17.1552C51.7517 17.1463 51.4415 17.4595 51.2259 17.9203C51.0782 18.2334 51.0486 18.5673 50.9955 18.9838L50.9925 18.9868Z" fill="#131313"/>
<path d="M70.0568 19.4133C70.5088 19.9923 70.9549 20.5625 71.4394 21.1888C70.7747 21.3394 70.237 21.369 69.8973 20.6718C69.7407 20.3498 69.4867 20.078 69.2799 19.7796C69.1942 19.6556 69.0849 19.5876 68.9372 19.626C68.7511 19.6733 68.8102 19.8387 68.8072 19.9598C68.7984 20.1873 68.8013 20.4148 68.8072 20.6393C68.8131 20.9554 68.9697 21.2981 68.3671 21.2863C67.853 21.2774 67.8589 21.0558 67.853 20.6777C67.8324 19.3867 67.9446 18.0928 67.791 16.8048C67.7674 16.598 67.8117 16.4976 68.0244 16.5064C68.565 16.5271 69.1115 16.4503 69.6521 16.5626C70.2252 16.6807 70.6831 16.9584 70.8456 17.5374C71.0169 18.1489 70.8545 18.7014 70.3641 19.1356C70.2636 19.2243 70.1661 19.3188 70.0627 19.4133H70.0568ZM68.7629 18.0396C68.9786 18.3055 68.4734 18.8166 69.079 18.9052C69.5369 18.9702 69.9387 18.4828 69.918 17.9687C69.8973 17.4429 69.5812 17.1593 69.0967 17.1977C68.4852 17.2479 68.9668 17.7767 68.7629 18.0396Z" fill="#131313"/>
<path d="M102.098 20.0115C102.113 21.14 102.11 21.1341 100.878 21.3054C99.8824 21.4443 98.9991 21.2434 98.4289 20.366C97.847 19.4739 97.9001 18.5049 98.3935 17.5891C99.002 16.4606 100.541 16.0884 101.652 16.7472C101.918 16.9037 102.054 17.0278 101.856 17.3734C101.646 17.7427 101.489 17.5536 101.28 17.4237C100.707 17.0662 100.133 17.013 99.5929 17.4827C99.0316 17.9731 98.8455 18.9362 99.1497 19.6777C99.4245 20.3453 99.9385 20.6703 100.63 20.6348C101.011 20.6142 101.297 20.5344 101.206 20.0499C101.176 19.8963 101.173 19.7279 101.203 19.5743C101.244 19.3527 100.76 18.9598 101.451 18.9244C102.006 18.8978 102.178 19.0869 102.101 19.6038C102.08 19.7368 102.098 19.8756 102.098 20.0115Z" fill="#131313"/>
<path d="M76.6893 21.2116C75.9892 21.4095 75.5578 21.2293 75.4426 20.5026C75.4013 20.2544 75.2388 20.154 74.9611 20.1599C74.2816 20.1747 73.5727 20.0063 73.4013 21.0255C73.3245 21.4804 72.8312 21.182 72.4648 21.2677C73.0527 19.7581 73.617 18.3165 74.1723 16.869C74.2757 16.6001 74.4559 16.479 74.7366 16.479C75.0291 16.479 75.0172 16.7301 75.0822 16.9014C75.6199 18.3313 76.1516 19.7611 76.6922 21.2116H76.6893ZM74.5593 17.897C74.3437 18.4701 74.1783 18.9162 74.004 19.377C74.7583 19.4519 75.0212 19.1712 74.7927 18.5351C74.7336 18.3667 74.6716 18.2013 74.5593 17.897Z" fill="#131313"/>
<path d="M48.1961 17.6693C47.2597 17.0164 46.5861 16.9928 46.0426 17.5777C45.4281 18.2395 45.3779 19.4123 45.9333 20.0858C46.5034 20.78 47.3128 20.7712 48.4177 20.0533C48.6895 20.7328 48.6688 20.7919 48.0277 21.0902C46.9849 21.5777 45.7767 21.3531 45.109 20.5496C44.3941 19.69 44.4 18.2749 45.1179 17.3296C45.756 16.4936 46.9199 16.2011 47.9362 16.6206C48.6304 16.9071 48.6452 16.9603 48.1961 17.6664V17.6693Z" fill="#131313"/>
<path d="M81.7824 20.0309C82.0808 20.5863 81.8622 20.861 81.4013 21.0766C80.3467 21.5729 79.0823 21.3543 78.4294 20.539C77.7086 19.638 77.7588 18.1136 78.5417 17.2096C79.2211 16.4238 80.5151 16.2111 81.4663 16.7015C81.8385 16.8936 81.9744 17.0915 81.682 17.4696C81.552 17.638 81.4929 17.6173 81.3216 17.5257C80.3171 16.994 79.7765 17.0472 79.2832 17.6882C78.7219 18.4179 78.7603 19.5818 79.3659 20.1904C79.9272 20.7517 80.7248 20.7369 81.5815 20.1431C81.6347 20.1077 81.6938 20.0781 81.7824 20.025V20.0309Z" fill="#131313"/>
<path d="M85.1636 16.5054C85.6836 16.5054 86.2065 16.5231 86.7234 16.4995C87.0425 16.4847 87.0986 16.6265 87.0986 16.8983C87.0986 17.1671 86.9952 17.238 86.7353 17.2469C86.3601 17.2587 85.8401 17.0608 85.6511 17.3503C85.462 17.6428 85.5713 18.1331 85.5684 18.5379C85.5684 19.3059 85.5447 20.077 85.6009 20.8451C85.6245 21.1818 85.5831 21.3059 85.2434 21.2616C84.9657 21.2261 84.5905 21.4152 84.6112 20.848C84.6467 19.8997 84.5817 18.9455 84.6349 17.9973C84.6703 17.3798 84.493 17.1258 83.8668 17.2321C83.7338 17.2558 83.595 17.2262 83.4591 17.2351C83.1903 17.2528 83.1135 17.1199 83.1164 16.8658C83.1164 16.6147 83.1873 16.4906 83.4621 16.4965C84.0263 16.5084 84.5935 16.4995 85.1577 16.4995L85.1636 16.5054Z" fill="#131313"/>
<path d="M63.638 19.2447C63.638 18.7484 63.6085 18.2462 63.6469 17.7528C63.6823 17.3215 63.5257 17.1827 63.1151 17.2359C62.8935 17.2624 62.6631 17.2299 62.4386 17.2418C62.1255 17.2595 62.1432 17.0556 62.1373 16.8429C62.1343 16.6362 62.1609 16.5003 62.4238 16.5032C63.5553 16.5121 64.6838 16.5121 65.8152 16.5032C66.0781 16.5032 66.1047 16.6391 66.1018 16.8459C66.0988 17.0586 66.1136 17.2388 65.8004 17.2477C65.4075 17.2624 64.8433 17.0438 64.6631 17.3599C64.4652 17.7026 64.5892 18.2344 64.5863 18.6834C64.5833 19.4072 64.5686 20.1309 64.607 20.8517C64.6247 21.1915 64.5242 21.2978 64.2022 21.2594C63.9393 21.2299 63.5937 21.3835 63.6291 20.8665C63.6675 20.3259 63.638 19.7823 63.638 19.2388V19.2447Z" fill="#131313"/>
<path d="M50.7093 25.2196C50.7093 25.128 50.7004 25.0364 50.7093 24.9478C50.7624 24.5519 50.5202 23.8873 50.8038 23.8105C51.4065 23.648 52.1184 23.6125 52.7122 23.9936C53.3355 24.3954 53.3946 25.0335 53.2912 25.6863C53.1967 26.2949 52.8363 26.7055 52.2159 26.8562C50.9131 27.1693 50.7093 27.0128 50.7093 25.6952V25.2196ZM51.3533 25.3466C51.3533 25.5032 51.3356 25.6657 51.3592 25.8193C51.3887 26.0231 51.2144 26.3274 51.4951 26.4131C51.7639 26.4958 52.0711 26.484 52.3222 26.2565C52.7329 25.8843 52.7801 24.9567 52.4109 24.5135C52.1775 24.2299 51.8614 24.1915 51.5512 24.2565C51.1908 24.3333 51.4035 24.6612 51.3621 24.8739C51.3326 25.0246 51.3562 25.1871 51.3562 25.3466H51.3533Z" fill="#131313"/>
<path d="M70.9784 25.7688C70.9784 25.1307 70.9902 24.6314 70.9724 24.1351C70.9636 23.9106 70.9399 23.7422 71.256 23.7393C71.5899 23.7393 71.5396 23.952 71.5396 24.1469C71.5396 24.9386 71.5455 25.7304 71.5396 26.5221C71.5396 26.6639 71.6253 26.8618 71.3919 26.9091C71.2176 26.9445 71.0965 26.8382 70.9843 26.7141C70.4909 26.1617 69.9976 25.6122 69.3861 24.9298C69.3861 25.5679 69.3831 26.0524 69.3861 26.5368C69.3861 26.717 69.454 26.9061 69.1615 26.9209C68.8839 26.9327 68.8189 26.7998 68.8218 26.5487C68.8277 25.7569 68.8159 24.9652 68.8218 24.1735C68.8218 24.0317 68.7273 23.8367 68.9311 23.7658C69.1202 23.6979 69.2768 23.7865 69.4067 23.9401C69.9001 24.5192 70.3993 25.0952 70.9784 25.7688Z" fill="#131313"/>
<path d="M95.4626 25.767C95.4626 25.1141 95.4774 24.6001 95.4567 24.0861C95.4478 23.8616 95.4774 23.7463 95.7314 23.7463C95.9707 23.7463 96.0416 23.8527 96.0387 24.0772C96.0328 24.8896 96.0416 25.7049 96.0387 26.5173C96.0387 26.6562 96.1332 26.8541 95.9028 26.9102C95.7314 26.9546 95.6014 26.86 95.4892 26.7359C94.984 26.1687 94.4759 25.6015 93.8821 24.9369C93.8821 25.5602 93.8733 26.0683 93.8851 26.5735C93.891 26.7803 93.8762 26.9221 93.6133 26.925C93.3592 26.925 93.3179 26.7921 93.3208 26.5823C93.3238 25.7906 93.3149 25.0019 93.3208 24.2101C93.3208 24.0536 93.1879 23.8261 93.4597 23.7611C93.6576 23.7109 93.7965 23.8231 93.9235 23.9738C94.405 24.541 94.8895 25.1023 95.4626 25.7699V25.767Z" fill="#131313"/>
<path d="M76.7329 25.3188C76.727 26.2789 76.1066 26.9672 75.2351 26.979C74.3459 26.9909 73.7196 26.2996 73.7492 25.3306C73.7758 24.4089 74.4582 23.7029 75.3149 23.7118C76.21 23.7177 76.7388 24.3174 76.7358 25.3188H76.7329ZM76.0682 25.372C76.077 24.6659 75.7344 24.1696 75.244 24.1785C74.7831 24.1874 74.4257 24.6778 74.4139 25.3188C74.402 25.9835 74.7802 26.5182 75.2587 26.5152C75.7255 26.5152 76.0593 26.0396 76.0682 25.372Z" fill="#131313"/>
<path d="M68.0269 25.2981C68.0299 26.2907 67.3888 26.9908 66.4849 26.979C65.6252 26.9701 65.0344 26.3025 65.0462 25.3542C65.058 24.4355 65.7316 23.7176 66.5883 23.7117C67.4863 23.7058 68.024 24.2966 68.0269 25.2981ZM67.3711 25.3306C67.3652 24.6659 67.0314 24.1844 66.5676 24.1755C66.089 24.1667 65.702 24.6984 65.7079 25.3631C65.7138 25.9953 66.0742 26.4975 66.5321 26.5152C67.0225 26.5329 67.377 26.0307 67.3711 25.3306Z" fill="#131313"/>
<path d="M89.8141 18.9922C89.8141 19.6037 89.7816 20.2152 89.8288 20.8237C89.8495 21.1221 89.8879 21.32 89.5009 21.258C89.235 21.2137 88.8333 21.4441 88.8481 20.868C88.8746 19.9641 88.8569 19.0571 88.854 18.1502C88.854 17.8105 88.8333 17.4708 88.8421 17.131C88.8481 16.8593 88.6265 16.4929 89.2114 16.4841C89.6929 16.4782 89.8377 16.6111 89.8052 17.0867C89.7638 17.7189 89.7934 18.3541 89.7934 18.9892C89.7993 18.9892 89.8052 18.9892 89.8111 18.9892L89.8141 18.9922Z" fill="#131313"/>
<path d="M48.5508 26.917C48.542 26.8756 48.4474 26.914 48.3233 26.9199C48.09 26.9347 47.8625 26.9406 47.7975 26.6363C47.7207 26.2641 47.4991 26.1518 47.118 26.1666C46.7665 26.1784 46.4977 26.2109 46.4209 26.6156C46.3677 26.8963 46.1432 26.9997 45.9157 26.8963C45.6705 26.784 45.8684 26.5861 45.9275 26.4325C46.2141 25.6762 46.5065 24.92 46.799 24.1667C46.8817 23.9569 46.9585 23.7088 47.2392 23.7265C47.5109 23.7413 47.4785 24.0337 47.5434 24.1991C47.8743 25.0352 48.1727 25.883 48.5508 26.914V26.917ZM47.1033 24.7752C46.9999 25.1031 46.734 25.3572 46.8699 25.6615C46.9172 25.7649 47.2953 25.7767 47.3544 25.6526C47.5021 25.3424 47.2539 25.0824 47.1033 24.7752Z" fill="#131313"/>
<path d="M55.6291 23.8209C56.338 23.5196 56.4208 24.0484 56.5714 24.5003C56.7132 24.9287 56.8698 25.3511 57.0382 25.8297C57.375 25.4014 57.44 24.8992 57.6408 24.4619C57.7147 24.2995 57.7531 24.1163 57.824 23.9538C57.9303 23.7145 58.1637 23.6998 58.3469 23.7736C58.5862 23.8711 58.3823 24.0513 58.3351 24.1724C58.0308 24.973 57.7117 25.7677 57.3927 26.5623C57.3306 26.7189 57.3336 26.9553 57.1002 26.9582C56.8757 26.9612 56.7605 26.8105 56.6778 26.5889C56.341 25.6643 55.9806 24.7455 55.6261 23.8238L55.6291 23.8209Z" fill="#131313"/>
<path d="M86.7162 26.1249C86.8343 26.3848 86.858 26.5562 86.6039 26.7246C85.9983 27.1263 85.0382 27.0436 84.5419 26.5089C84.0456 25.9772 84.022 24.9137 84.4946 24.3051C84.9555 23.7084 85.8831 23.5134 86.5123 23.8915C86.6541 23.9772 86.8639 24.0392 86.7043 24.2962C86.6009 24.4646 86.53 24.5178 86.3439 24.3967C85.8299 24.0658 85.3484 24.0865 85.0027 24.6389C84.6867 25.1441 84.6748 25.6936 85.0736 26.1515C85.4843 26.6241 85.9924 26.5414 86.4857 26.2489C86.5566 26.2076 86.6305 26.1692 86.7162 26.1219V26.1249Z" fill="#131313"/>
<path d="M96.8478 25.4196C96.8419 24.1168 98.1004 23.2778 99.1757 23.8745C99.3529 23.972 99.542 24.0547 99.3825 24.3383C99.22 24.6249 99.093 24.4063 98.96 24.3413C98.5021 24.1168 98.0885 24.1197 97.7518 24.551C97.4268 24.9705 97.415 25.7681 97.7429 26.1404C98.1122 26.5599 98.5583 26.5421 99.0427 26.3413C99.1639 26.291 99.285 25.9631 99.4593 26.2615C99.6188 26.5333 99.4238 26.6544 99.2082 26.7726C98.0856 27.3841 96.8567 26.681 96.8478 25.4225V25.4196Z" fill="#131313"/>
<path d="M61.6136 26.981C61.3979 26.9958 61.1675 26.8954 60.943 26.789C60.7332 26.6886 60.7214 26.4847 60.7953 26.3223C60.9105 26.0741 61.0227 26.3459 61.1409 26.3666C61.2945 26.3961 61.4393 26.4788 61.5929 26.5025C61.8145 26.5379 62.0065 26.4463 62.0922 26.2366C62.1778 26.0298 62.0272 25.891 61.8765 25.7876C61.652 25.634 61.4038 25.5187 61.1882 25.3563C60.7214 25.0077 60.6446 24.4759 60.9843 24.0564C61.2798 23.6901 62.1542 23.5808 62.488 23.8615C62.6209 23.9737 62.5885 24.1037 62.556 24.2307C62.491 24.473 62.3521 24.2898 62.2458 24.2691C62.0685 24.2366 61.8942 24.1657 61.7199 24.1716C61.5634 24.1776 61.4186 24.2869 61.3713 24.4523C61.327 24.6029 61.4216 24.7211 61.5338 24.7979C61.7583 24.9515 61.9976 25.0756 62.2251 25.2233C62.6328 25.4862 62.813 25.8644 62.6623 26.3311C62.5116 26.7949 62.1394 26.9899 61.6165 26.9781L61.6136 26.981Z" fill="#131313"/>
<path d="M77.5842 25.2587C77.5842 25.1671 77.5842 25.0785 77.5842 24.9869C77.5842 24.0888 78.044 23.6743 78.9637 23.7432C79.1499 23.758 79.333 23.7284 79.336 24.0032C79.3389 24.2956 79.1321 24.2218 78.9608 24.2513C78.7126 24.2927 78.3434 24.0859 78.2429 24.3931C78.1454 24.6885 78.0568 25.1523 78.6949 25.0785C78.8338 25.0637 79.1439 24.8894 79.1617 25.2469C79.1764 25.5512 78.9283 25.5482 78.7274 25.5187C78.2991 25.4596 78.1484 25.6309 78.2104 26.0475C78.237 26.2247 78.2104 26.4108 78.2223 26.591C78.24 26.8126 78.1838 26.9337 77.9298 26.9248C77.7171 26.916 77.5812 26.8628 77.5842 26.6176C77.5901 26.1656 77.5842 25.7107 77.5842 25.2587Z" fill="#131313"/>
<path d="M82.1099 25.5611C82.1099 25.4016 82.0921 25.2421 82.1099 25.0885C82.1778 24.5272 82.1099 24.1047 81.3713 24.2495C81.2029 24.282 81.0641 24.2317 81.0759 24.0013C81.0877 23.7798 81.2266 23.7532 81.3979 23.7532C82.0744 23.7532 82.7539 23.7532 83.4304 23.7532C83.6017 23.7532 83.7435 23.7857 83.7583 24.0013C83.776 24.2879 83.5633 24.2879 83.3949 24.2524C82.7243 24.1136 82.6652 24.4799 82.7007 25.0057C82.7361 25.5227 82.7066 26.0456 82.7155 26.5626C82.7184 26.7516 82.745 26.923 82.4673 26.9289C82.2132 26.9348 82.0921 26.855 82.1039 26.5803C82.1187 26.2435 82.1069 25.9038 82.1069 25.5641L82.1099 25.5611Z" fill="#131313"/>
<path d="M87.5988 25.2841C87.5988 24.9 87.6076 24.516 87.5958 24.132C87.587 23.9015 87.5958 23.7361 87.9031 23.745C88.163 23.7538 88.2664 23.8543 88.2605 24.1113C88.2516 24.6548 88.296 25.2014 88.2457 25.739C88.1955 26.2885 88.3403 26.5307 88.9311 26.448C89.064 26.4303 89.3742 26.2619 89.3919 26.6194C89.4067 26.962 89.1408 26.9177 88.9163 26.9295C88.0458 26.967 87.6106 26.5554 87.6106 25.6947C87.6106 25.5588 87.6106 25.4229 87.6106 25.287C87.6076 25.287 87.6047 25.287 87.6017 25.287L87.5988 25.2841Z" fill="#131313"/>
<path d="M54.1958 25.2534C54.1958 24.8929 54.2076 24.5325 54.1899 24.1751C54.181 23.9742 54.0835 23.7704 54.4203 23.7467C54.7068 23.729 54.822 23.8206 54.8191 24.1219C54.8102 24.955 54.8102 25.7881 54.8368 26.6211C54.8457 26.8781 54.7423 26.9254 54.5266 26.9284C54.2932 26.9313 54.2076 26.8338 54.2135 26.6064C54.2223 26.1573 54.2135 25.7053 54.2135 25.2563C54.2076 25.2563 54.2017 25.2563 54.1958 25.2563V25.2534Z" fill="#131313"/>
<path d="M64.1983 25.422C64.1983 25.806 64.1924 26.1901 64.1983 26.5741C64.2042 26.775 64.1924 26.9257 63.9266 26.9257C63.6755 26.9257 63.5573 26.8429 63.5573 26.5741C63.5543 25.7174 63.5366 24.8577 63.5189 24.001C63.513 23.7765 63.6341 23.7529 63.8173 23.744C64.0536 23.7352 64.2072 23.7736 64.1983 24.066C64.1836 24.518 64.1954 24.97 64.1954 25.422H64.2013H64.1983Z" fill="#131313"/>
<path d="M59.1641 25.2602C59.1641 24.8761 59.1818 24.4921 59.1582 24.108C59.1434 23.851 59.2084 23.7417 59.4861 23.7447C59.7549 23.7447 59.8377 23.851 59.8347 24.1051C59.8258 24.9411 59.8258 25.7771 59.8406 26.6132C59.8436 26.8525 59.7609 26.9352 59.5275 26.9263C59.3148 26.9174 59.1848 26.8554 59.1877 26.6161C59.1937 26.1641 59.1877 25.7122 59.1877 25.2602C59.1789 25.2602 59.17 25.2602 59.1612 25.2602H59.1641Z" fill="#131313"/>
<path d="M91.5495 25.283C91.5495 24.8753 91.5613 24.4676 91.5466 24.0629C91.5377 23.8295 91.6145 23.7321 91.8538 23.7439C92.0547 23.7527 92.2142 23.7793 92.2142 24.0304C92.2172 24.9108 92.2201 25.7941 92.2319 26.6744C92.2319 26.9048 92.096 26.9225 91.9218 26.9196C91.7238 26.9196 91.5613 26.896 91.5643 26.636C91.5702 26.184 91.5643 25.732 91.5643 25.28C91.5584 25.28 91.5554 25.28 91.5495 25.28V25.283Z" fill="#131313"/>
<path d="M100.493 26.2893C100.711 26.2716 100.832 26.3898 100.853 26.5907C100.874 26.7886 100.776 26.9422 100.569 26.9718C100.324 27.0072 100.176 26.8447 100.165 26.632C100.156 26.4577 100.268 26.2953 100.493 26.2893Z" fill="#131313"/>
</g>
<defs>
<clipPath id="clip0_1100_9622">
<rect width="34.4077" height="28" fill="white"/>
</clipPath>
<clipPath id="clip1_1100_9622">
<rect width="62.3032" height="25.9936" fill="white" transform="translate(42.3204 1.00317)"/>
</clipPath>
</defs>
</svg>
