<svg preserveAspectRatio="none" overflow="visible" style="display: block;" width="52" height="66.2745" viewBox="0 0 52 66.2745" fill="none" xmlns="http://www.w3.org/2000/svg">
<g id="ChatGPT Image Sep 21, 2026, 06_31_48 AM 2 [Vectorized]">
<path id="Union" d="M42.7275 16.1768C42.7284 16.6879 42.7481 17.407 42.6992 17.9004C43.2531 17.8759 43.8741 17.8795 44.4326 17.875C44.3872 18.2284 44.4153 19.1928 44.417 19.6055L44.4375 23.207L44.3994 35.9004C44.41 39.4473 44.4566 43.0272 44.4111 46.5762C44.4094 46.7202 44.4163 46.8211 44.333 46.9346C44.0004 47.0705 43.0717 46.944 42.6953 46.9023C42.7556 47.4555 42.7309 48.0609 42.7471 48.6289C41.8441 48.5979 40.8286 48.6157 39.917 48.6152L34.7295 48.6191C32.547 48.6217 30.0166 48.5431 27.8682 48.6221C27.8889 48.0083 27.8797 47.3763 27.8936 46.7578L34.5508 46.7441C37.1549 46.7344 39.8933 46.7032 42.4883 46.7461V37.7041L42.4922 24.2236C39.1224 24.1826 35.6906 24.2084 32.3164 24.2119L19.4014 24.2021L12.7939 24.207C12.091 24.2066 10.4899 24.2631 9.85547 24.1992L9.86621 39.9932C9.87423 42.1967 9.81574 44.572 9.875 46.7598C10.2196 46.7198 10.9084 46.7422 11.3037 46.7324C11.3662 47.43 11.382 47.9326 11.3887 48.6318C10.8303 48.6051 10.1819 48.6115 9.61914 48.6094C9.54798 48.0363 9.58044 47.4759 9.62109 46.9023C9.10946 46.9571 8.51184 46.8875 7.95313 46.9453C7.97451 46.292 7.95317 45.5712 7.95508 44.9111L7.95313 39.8154L7.95801 26.2129C7.9431 23.4394 7.94721 20.6651 7.96875 17.8916C8.31905 17.8589 9.216 17.8788 9.58887 17.8779C9.584 17.5624 9.53265 16.4077 9.68652 16.2061C10.793 16.1584 12.0943 16.191 13.2129 16.1924L19.0225 16.1904L33.0693 16.1885C36.2887 16.2047 39.5084 16.2005 42.7275 16.1768ZM17.8105 43.3789L26.4932 43.377C26.5993 44.2066 26.5466 45.2704 26.5732 46.1162C26.5867 46.5427 26.6359 47.2962 26.5889 47.6875C26.2911 47.9989 26.046 48.2797 25.7676 48.6094C23.7061 48.6276 21.6445 48.6312 19.583 48.6201C17.489 48.629 15.3947 48.6226 13.3008 48.6035C13.2072 48.0062 13.3045 47.9428 12.6533 47.835C12.5619 47.2818 12.5802 46.5584 12.582 45.9883C12.5895 45.1434 12.5909 44.298 12.585 43.4531C12.8755 43.4272 13.1913 43.4127 13.4844 43.3936C14.7812 43.3324 16.4928 43.3802 17.8105 43.3789ZM22.5908 45.1963C22.5874 45.7142 22.577 46.2325 22.5596 46.75C23.0805 46.7372 24.0032 46.6931 24.4893 46.7363C24.5426 46.34 24.5188 45.6372 24.5205 45.2051C23.8773 45.2059 23.234 45.2031 22.5908 45.1963ZM16.2441 45.1816C15.6758 45.194 15.1075 45.2011 14.5391 45.2041C14.5768 45.5915 14.5993 46.3172 14.5908 46.7188C15.7499 46.768 16.8828 46.7334 18.0381 46.7432C18.4613 46.7334 19.1599 46.6948 19.5576 46.7139C19.5491 46.2182 19.5459 45.7222 19.5479 45.2266C18.581 45.1871 17.2079 45.1523 16.2441 45.1816ZM39.1611 41.5459C39.0961 42.2411 39.2098 43.2087 39.1133 43.8506C39.014 43.9474 39.0591 43.9197 38.8828 43.9248C36.4622 43.9762 34.0408 43.9788 31.6201 43.9316C30.8252 43.9193 30.1672 43.9765 29.3584 43.9268C29.3452 43.5843 29.2804 41.8942 29.3643 41.6553C29.4692 41.5641 29.5791 41.5773 29.7246 41.5684C32.3668 41.5076 35.0972 41.6018 37.7471 41.5791C38.2203 41.575 38.6886 41.5691 39.1611 41.5459ZM13.9902 36.9824C15.8086 36.9254 17.7771 37.0126 19.6035 36.9941C21.0391 36.9681 22.4754 36.9654 23.9111 36.9854C24.4609 36.9921 25.2482 36.9651 25.7666 37.042C25.7897 37.2691 25.8469 37.4974 25.8975 37.7207C26.0744 37.7471 26.3374 37.7613 26.4619 37.9023C26.7539 38.234 26.4885 41.5985 26.4893 42.2842C26.0023 42.3176 25.6115 42.3741 25.1182 42.3691C24.1626 42.3814 23.228 42.3602 22.2852 42.3682C19.0827 42.4137 15.8796 42.3973 12.6777 42.3184C12.6602 41.9915 12.5837 41.6437 12.5889 41.293C12.6053 40.1897 12.4923 38.9931 12.6689 37.9062C12.6913 37.7685 13.0366 37.7028 13.1348 37.5928C13.2825 37.4269 13.3025 37.2293 13.4141 37.0459C13.55 36.9704 13.8229 36.985 13.9902 36.9824ZM15.4854 38.9346C15.1773 38.9408 14.8186 38.9569 14.5146 38.9521C14.5364 39.4498 14.563 39.9481 14.5928 40.4453C15.9801 40.4505 17.438 40.4754 18.8223 40.4512L19.5908 40.4414C19.5508 40.071 19.5404 39.3578 19.5498 38.9736C18.1956 38.9278 16.8402 38.9143 15.4854 38.9346ZM22.5557 38.9375C22.5566 39.2394 22.5407 40.1627 22.584 40.4141C22.6258 40.4308 22.6349 40.4405 22.6758 40.4404C23.2943 40.4455 23.9408 40.4422 24.5566 40.4609C24.5263 40.1554 24.5895 39.055 24.4727 38.9482C23.847 38.9441 23.177 38.9533 22.5557 38.9375ZM29.3936 37.6064C32.4963 37.5711 35.6072 37.6318 38.7109 37.6025C39.4504 37.5956 40.1935 37.6053 40.9326 37.6299C40.9358 38.0302 41.0594 39.9372 40.8984 40.1416C40.2536 40.1974 39.1685 40.1503 38.4795 40.1523L32.4414 40.1475C31.5789 40.1472 30.1877 40.104 29.3574 40.1699C29.3406 39.8055 29.29 37.8588 29.3936 37.6064ZM20.6074 25.5615C20.5962 25.931 20.6639 26.598 20.6924 26.9873C21.0342 27.0145 21.3674 27.018 21.71 27.0244C21.7442 27.361 21.7575 27.566 21.8564 27.8906L22.4912 28.1572C22.5584 28.3423 22.589 28.5608 22.623 28.7568L23.4365 28.7783C23.4662 29.0898 23.5237 29.4105 23.5547 29.7383C23.8851 29.7746 24.2159 29.8079 24.5469 29.8379C24.6066 30.2639 24.597 30.6332 24.5918 31.0625C23.6744 30.9168 22.6119 31.126 21.7568 31.0635C21.7782 31.8368 21.7312 32.7436 21.751 33.5352C21.7621 33.9808 21.7767 35.4547 21.7061 35.8213C21.4838 35.9461 20.5452 35.9025 20.2363 35.9004C19.3524 35.8954 18.468 35.8955 17.584 35.9004C17.6336 34.9644 17.6471 34.0269 17.624 33.0898C17.6126 32.4706 17.5546 31.6674 17.6357 31.0732C16.8482 31.0464 15.7335 31.0096 14.9619 31.0264C14.9707 30.622 14.985 30.2174 15.0049 29.8135C16.0399 29.6981 15.6405 29.724 16.1533 28.9629C16.4332 28.5474 17.1299 28.1165 17.4531 27.709L17.4717 27.6846C17.6119 27.5085 17.6778 27.235 17.7461 27.0146C17.9858 26.9823 18.1711 26.9519 18.4072 26.9004C18.7069 26.4547 18.734 26.2089 18.751 25.6719L19.3955 25.5908C19.6316 25.5529 20.333 25.5639 20.6074 25.5615ZM40.9883 26.043C40.9165 26.7277 40.9895 28.2878 40.9863 29.0508C40.9797 30.632 40.9724 32.2361 40.9629 33.8184C40.9605 34.2166 41.0178 35.5277 40.9355 35.8076C40.0845 35.8327 39.1781 35.7968 38.3203 35.8008C36.2501 35.8235 34.1797 35.8322 32.1094 35.8252C31.2202 35.8249 30.2397 35.7946 29.3633 35.8232C29.3063 35.4051 29.3239 34.8098 29.3252 34.3779L29.3311 32.2139C29.323 31.0076 29.3223 29.801 29.3281 28.5947C29.327 28.1704 29.2701 26.2481 29.4229 26.0439L40.9883 26.043ZM36.0596 28.9033C36.0049 29.148 36.0372 29.2271 36.0078 29.4365C35.928 30.0062 35.8512 30.4192 35.8535 31.0029C35.4657 31.0083 35.1167 31.0284 34.7295 31.0547C34.7536 31.4375 34.7452 31.7651 34.7363 32.1494C34.4161 32.1394 33.63 32.1343 33.3174 32.1709L33.3125 31.0557C32.8774 31.0408 32.6385 31.0575 32.2051 31.0957C32.2411 31.4186 32.2042 31.8444 32.1855 32.1777C31.8325 32.1666 31.4823 32.1954 31.1582 32.1846C31.1328 32.7801 31.1932 33.3923 31.1699 33.9619L32.9141 33.9766C34.1872 33.9833 35.4604 33.9794 36.7334 33.9658C37.4551 33.9582 38.3889 33.9185 39.0898 33.9609C39.062 33.0032 39.1104 32.0246 39.0801 31.0791C38.7983 31.048 38.4902 31.0069 38.209 31L38.1504 30.0127C37.9083 29.9827 37.651 29.9556 37.4111 29.9189C37.3815 29.6349 37.3818 29.1466 37.1719 28.9707C36.9652 28.8794 36.3453 28.9214 36.0596 28.9033ZM35.4521 18.0254L24.5508 18.0156L15.0039 18.0166H11.959C11.4401 18.0162 10.7395 17.9922 10.2363 18.0303C10.1109 18.035 9.99433 18.022 9.89941 18.0928C9.79877 18.5022 9.83927 21.7945 9.88184 22.3271C11.1375 22.2926 12.3462 22.3251 13.5947 22.333L19.1494 22.3506L41.9844 22.3467L42.4824 22.3359C42.4904 20.9212 42.4719 19.4672 42.5039 18.0576C40.3405 17.9488 37.658 18.0195 35.4521 18.0254ZM20.2471 19.3467C20.3518 19.497 20.3169 21.0057 20.3271 21.3174C19.7985 21.2655 19.0579 21.2804 18.5127 21.2764L18.4268 21.2627C18.266 21.0226 18.395 19.6998 18.4199 19.3398C19.0046 19.3334 19.5893 19.3222 20.1738 19.3057L20.2471 19.3467ZM15.0156 19.3193C15.4091 19.3551 16.3864 19.3252 16.834 19.3252C16.8534 19.5779 16.9185 21.1296 16.8086 21.3076C16.2825 21.2819 15.4922 21.2628 14.9736 21.2988C14.9682 20.7592 14.944 19.8271 15.0156 19.3193ZM11.7168 19.3037C12.2595 19.2902 12.8022 19.2832 13.3428 19.334C13.3951 19.7701 13.4394 20.8016 13.3604 21.208C13.2729 21.3098 13.3129 21.2789 13.1377 21.2939L11.4678 21.292C11.4275 20.8483 11.4804 19.962 11.5332 19.499C11.5475 19.3742 11.6247 19.3543 11.7168 19.3037Z" fill="#5B5B5B"/>
</g>
</svg>
